<?xml version="1.0" encoding="utf-8"?>
<!-- Generator: Adobe Illustrator 27.8.1, SVG Export Plug-In . SVG Version: 6.00 Build 0)  -->
<svg version="1.1" id="Layer_1" xmlns="http://www.w3.org/2000/svg" xmlns:xlink="http://www.w3.org/1999/xlink" x="0px" y="0px"
	 viewBox="0 0 864 864" style="enable-background:new 0 0 864 864;" xml:space="preserve">
<path d="M422.03,112.33c5.12,0,10.24,0,15.36,0c1.99,0.44,3.98,0.85,5.97,1.31c10.06,2.35,20.43,3.81,30.11,7.23
	c33.26,11.76,58.48,34,78.54,62.49c20.92,29.73,33.62,63.01,41.93,98.13c2.83,11.93,4.73,24.13,8.28,35.83
	c8.32,27.45,15.84,55.06,19.86,83.51c3.76,26.62,4.96,53.25-0.58,79.79c-0.64,3.07,0.09,4.1,2.94,5.18
	c29.16,11.1,58.06,22.73,85.33,38.14c33.39,18.86,57.49,45.42,68.47,82.51c6.89,23.27,12.29,46.97,18.55,70.43
	c1.26,4.74,0.57,8.86-2.05,12.76c-5.12,7.62-10.38,15.15-15.51,22.76c-2.42,3.6-4.85,7.22-6.95,11.01
	c-3.18,5.73-8.03,8.84-14.14,10.92c-12.43,4.22-24.69,8.96-37.02,13.49c-0.36,0.13-0.67,0.41-1.03,0.51c-2.62,0.71-5.25,2-7.88,2
	c-196.99,0.09-393.99,0.01-590.98,0.31c-9.6,0.01-17.44-2.54-24.87-7.83c-2.81-2-5.46-4.24-8.24-6.29
	c-9.71-7.13-15.35-17.32-20.85-27.61c-0.51-0.96-0.52-2.21-0.67-3.34c-0.72-5.44-1.48-10.87-2.08-16.33
	c-0.47-4.28-1.85-8.86-0.89-12.84c5.5-22.86,10.96-45.77,17.62-68.31c10.37-35.1,31.86-61.84,63.34-80.7
	c19.59-11.73,40.19-21.3,61.24-29.97c10.97-4.52,22.06-8.74,33.23-13.14c-0.12-0.87-0.18-1.62-0.33-2.34
	c-2.97-13.96-4.08-28.09-3.84-42.33c0.6-35.72,7.95-70.31,17.79-104.47c2.79-9.7,6.06-19.27,8.5-29.05
	c2.81-11.28,4.53-22.83,7.46-34.07c10.28-39.43,26.32-76.08,53.79-106.84c23.98-26.86,53.09-45.01,89.12-50.95
	C415.04,113.64,418.53,112.96,422.03,112.33z M430.07,623.97c0.99-2.22,1.53-3.48,2.11-4.72c3.9-8.32,7.54-16.78,11.77-24.94
	c8.35-16.09,19.75-29.54,37.13-36.05c10.09-3.78,20.77-6.59,31.44-8.1c18.14-2.58,35.44-6.83,50.2-18.22
	c21.89-16.9,34.41-39.44,38.96-66.5c7.17-42.64,1.29-83.6-17.1-122.63c-4.38-9.29-9.47-18.63-16.05-26.42
	c-12.48-14.77-28.01-26.32-45.45-34.7c-70.48-33.87-138.87-29.11-204.74,12.48c-17.83,11.26-32.44,25.5-41.38,45.49
	c-17.13,38.29-23.7,78.08-19.87,119.68c1.14,12.36,2.97,24.73,8.23,36.12c12.09,26.18,32.29,42.77,60.48,49.09
	c11.46,2.57,23.18,3.99,34.73,6.18c22.83,4.33,40.93,15.62,52.11,36.53c4.33,8.1,8.23,16.44,12.22,24.73
	C426.6,615.61,428.08,619.36,430.07,623.97z"/>
</svg>
