<?xml version="1.0" encoding="utf-8"?>
<!-- Generator: Adobe Illustrator 27.8.1, SVG Export Plug-In . SVG Version: 6.00 Build 0)  -->
<svg version="1.1" id="Layer_1" xmlns="http://www.w3.org/2000/svg" xmlns:xlink="http://www.w3.org/1999/xlink" x="0px" y="0px"
	 viewBox="0 0 864 864" style="enable-background:new 0 0 864 864;" xml:space="preserve">
<g>
	<path d="M733.43,242.64c-38.21-38.27-75.81-75.95-114.16-114.36c-21.9,22.11-44.2,44.63-66.53,67.13
		c-11.38,11.47-22.72,22.96-34.21,34.32c-10.66,10.54-16.34,10.48-26.88,0.1c-1.03-1.01-2.08-2-3.08-3.04
		c-8.38-8.74-8.44-15.06,0.24-23.77c32.77-32.89,65.62-65.7,98.43-98.54c6.11-6.12,12.08-12.39,18.35-18.35
		c9.53-9.06,20.69-9.28,29.97-0.04c46.82,46.6,93.54,93.3,140.14,140.12c10.01,10.06,9.48,20.97-0.67,31.14
		c-38.51,38.58-77.02,77.15-115.56,115.69c-8.98,8.98-15.36,8.98-24.38,0.18c-1.44-1.41-2.89-2.82-4.3-4.26
		c-8.33-8.46-8.37-15.33,0.06-23.78c33.02-33.06,66.08-66.08,99.13-99.11C731.2,244.86,732.43,243.65,733.43,242.64z"/>
	<path d="M585.93,237.5c-2.74-2.04-7.22-3.72-8.44-6.72c-1.38-3.41-1.43-9.38,0.71-11.84c8.63-9.94,18-19.3,27.76-28.16
		c4.46-4.05,10.33-3.28,14.76,1.2c4.14,4.19,5.09,9.85,1.25,14.07c-9.04,9.96-18.82,19.27-28.52,28.61
		C591.96,236.1,589.3,236.29,585.93,237.5z"/>
	<path d="M635.69,287.33c-2.8-2.08-7.26-3.76-8.52-6.78c-1.41-3.38-1.52-9.37,0.59-11.79c8.64-9.94,18.08-19.23,27.77-28.17
		c4.56-4.21,11.12-4.02,14.44,1.1c2.31,3.57,3.51,11.13,1.37,13.74c-8.55,10.34-18.52,19.52-28.19,28.91
		C641.66,285.78,639.02,286.05,635.69,287.33z"/>
	<path d="M632.14,401.91c-57.22-57.49-114.58-114.84-172.09-172.03c-14.99-14.9-36.65-14.77-52.21-0.43
		c-4.88,4.5-9.43,9.35-14.12,14.04c-98.79,98.79-197.62,197.53-296.33,296.4c-25.33,25.37-25.91,63.59-1.2,88.5
		c45.53,45.9,91.34,91.51,137.12,137.15c12.19,12.16,26.99,18.44,44.37,18.31c16.97-0.09,31.53-6.04,43.55-18.03
		c21.05-20.99,42.05-42.02,63.07-63.04c82.04-82.04,164.09-164.06,246.09-246.14C647,440.03,647.93,417.77,632.14,401.91z"/>
</g>
</svg>
