<?xml version="1.0" encoding="utf-8"?>
<!-- Generator: Adobe Illustrator 27.8.1, SVG Export Plug-In . SVG Version: 6.00 Build 0)  -->
<svg version="1.1" id="Layer_1" xmlns="http://www.w3.org/2000/svg" xmlns:xlink="http://www.w3.org/1999/xlink" x="0px" y="0px"
	 viewBox="0 0 864 864" style="enable-background:new 0 0 864 864;" xml:space="preserve">
<g>
	<path d="M259.94,487.01c3.3,26.79-11.83,47.46-36.68,52.79c-24.69,5.29-49.29-9.3-57.88-34.32c-7.22-21.05,4.58-47.24,26.52-58.56
		c2.57-1.33,5.57-2.96,8.25-2.79c36.65,2.4,45.18-31.64,65.1-50.67c2.74-2.61,1.41-10.17,0.93-15.34
		c-2.83-30.82,15.35-54.17,45.55-58.11c22.66-2.96,44.84,16.69,51.55,42.75c2.09,8.1,9.22,16.61,16.4,21.38
		c29.68,19.71,60.01,38.51,90.74,56.54c6.19,3.63,15.18,2.53,22.9,3.5c1.13,0.14,2.39-0.69,3.53-0.55
		c47.12,6.01,66.16-35.73,96.49-57.83c5.41-3.94,4.61-16.45,6.61-25.02c5.6-24.09,24.34-40.32,47.6-41.17
		c19.59-0.71,41.33,16.19,47.74,37.14c10.4,33.98-18.88,67.17-54.34,62.44c-6.06-0.81-14.17,1.01-18.84,4.73
		c-19.54,15.56-38.52,31.89-56.81,48.92c-4.45,4.14-7.22,11.83-7.76,18.15c-2.48,29.39-19.48,48.2-46.26,49.65
		c-26.47,1.43-46.29-15.65-52.61-43.9c-1.21-5.43-5.71-11.43-10.42-14.55c-32.28-21.39-64.98-42.17-97.65-62.96
		c-9.64-6.13-45.13-1.02-53.14,7.97c-11.49,12.89-23.02,25.87-33.06,39.86C260.74,472.15,261.3,480.27,259.94,487.01z"/>
	<path d="M93.38,698.02h671.05c22.17-1.04,29.43-9.45,29.44-32.41c0.08-156.43,0.08-312.87-0.02-469.3
		c-0.02-23.75-7.26-31.08-31.25-31.1c-221.18-0.2-442.35-0.27-663.53-0.26c-24,0-32.23,8.42-32.25,32.48
		c-0.08,155.84-0.07,311.67-0.01,467.51C66.83,686.41,74.38,696.16,93.38,698.02z M114.46,211.87c210.21,0,420.93,0,634.63,0
		c0,17.99,0.01,34.66,0,51.34c-0.06,122.3-0.45,244.6,0.17,366.89c0.09,17.12-4.56,22.25-21.98,22.21
		c-199.64-0.5-399.28-0.21-598.92-0.17c-4.12,0-8.24-0.44-13.89-0.76C114.46,504.94,114.46,359.05,114.46,211.87z"/>
</g>
</svg>
